<svg xmlns="http://www.w3.org/2000/svg" xmlns:xlink="http://www.w3.org/1999/xlink" width="103" zoomAndPan="magnify"
    viewBox="0 0 77.25 66.749998" height="89" preserveAspectRatio="xMidYMid meet" version="1.0">
    <defs>
        <clipPath id="4f33d4f365">
            <path d="M 0 0.195312 L 76.507812 0.195312 L 76.507812 66.304688 L 0 66.304688 Z M 0 0.195312 "
                clip-rule="nonzero" />
        </clipPath>
    </defs>
    <g clip-path="url(#4f33d4f365)">
        <path fill="#000"
            d="M 13.050781 65.949219 C 11.699219 65.414062 10.332031 63.816406 9.875 62.230469 C 8.742188 58.3125 -0.226562 21.402344 -0.226562 20.660156 C -0.226562 19.433594 0.984375 17.234375 2.054688 16.527344 C 2.558594 16.195312 7.652344 14.449219 13.367188 12.652344 C 19.085938 10.855469 23.871094 9.289062 24 9.175781 C 24.128906 9.058594 24.5 7.859375 24.824219 6.503906 C 25.152344 5.152344 25.683594 3.519531 26.011719 2.878906 C 26.707031 1.523438 28.28125 0.453125 29.882812 0.242188 C 31.441406 0.0390625 72.71875 10.128906 74.503906 11.148438 C 75.859375 11.921875 77.023438 13.832031 77.023438 15.28125 C 77.023438 16.003906 68.027344 53 66.921875 56.820312 C 66.230469 59.214844 64.132812 60.886719 61.839844 60.867188 C 61.3125 60.863281 57.996094 60.132812 54.472656 59.25 L 48.066406 57.640625 L 31.839844 61.957031 C 22.917969 64.332031 15.207031 66.269531 14.710938 66.261719 C 14.210938 66.253906 13.464844 66.113281 13.050781 65.949219 Z M 25.574219 57.546875 C 30.71875 56.191406 35.117188 54.984375 35.351562 54.859375 C 35.601562 54.726562 32.382812 53.816406 27.507812 52.640625 C 22.957031 51.546875 18.808594 50.453125 18.285156 50.21875 C 17.761719 49.984375 16.957031 49.296875 16.496094 48.695312 C 14.953125 46.679688 15.039062 46.046875 18.925781 30.394531 C 20.851562 22.644531 22.363281 16.238281 22.285156 16.160156 C 22.132812 16.011719 6.414062 20.875 6.03125 21.1875 C 5.859375 21.332031 14.601562 57.769531 15.316406 59.890625 C 15.386719 60.097656 15.617188 60.207031 15.828125 60.136719 C 16.042969 60.066406 20.429688 58.898438 25.574219 57.546875 Z M 42.933594 36.007812 C 43.34375 35.726562 46.277344 33.441406 49.449219 30.929688 C 52.625 28.417969 55.53125 26.199219 55.90625 26 C 56.851562 25.496094 58.828125 25.8125 59.675781 26.605469 C 60.0625 26.96875 61.628906 29.210938 63.164062 31.597656 C 64.695312 33.980469 65.984375 35.894531 66.023438 35.851562 C 66.15625 35.710938 70.996094 15.988281 70.914062 15.925781 C 70.871094 15.890625 69.070312 15.441406 66.914062 14.929688 C 64.757812 14.414062 55.808594 12.230469 47.027344 10.070312 C 38.25 7.914062 31.039062 6.183594 31 6.230469 C 30.902344 6.351562 24.8125 31.226562 24.816406 31.492188 C 24.816406 31.617188 26.175781 31.042969 27.832031 30.214844 C 32.664062 27.796875 33.730469 28.0625 37.621094 32.65625 C 40.976562 36.621094 41.535156 36.972656 42.933594 36.007812 Z M 40.359375 23.234375 C 39.265625 22.855469 37.894531 21.636719 37.316406 20.53125 C 36.664062 19.292969 36.789062 17.027344 37.578125 15.636719 C 39.296875 12.617188 43.773438 12.1875 46.003906 14.832031 C 49.496094 18.964844 45.441406 25 40.359375 23.234375 Z M 40.359375 23.234375 "
            fill-opacity="1" fill-rule="nonzero" />
    </g>
</svg>