<svg xmlns="http://www.w3.org/2000/svg" xmlns:xlink="http://www.w3.org/1999/xlink" width="1080" zoomAndPan="magnify" viewBox="0 0 810 809.999993" height="1080" preserveAspectRatio="xMidYMid meet" version="1.0"><defs><g/></defs><path fill="#ffffff" d="M 500.9375 739.34375 C 491.289062 735.085938 489.308594 732.242188 465.53125 688.5 C 453.757812 666.84375 425.394531 614.699219 402.503906 572.625 C 379.613281 530.550781 357.789062 490.296875 354.007812 483.171875 L 347.132812 470.21875 L 356.789062 452.796875 C 362.101562 443.214844 394.570312 385.257812 428.941406 324 C 463.3125 262.742188 503.347656 191.363281 517.910156 165.375 C 570.535156 71.453125 567.917969 75.660156 576.335938 71.441406 C 583.144531 68.03125 591.226562 67.507812 637.125 67.503906 C 693.1875 67.5 697.988281 68.324219 700.628906 78.414062 C 702.230469 84.542969 710.894531 68.609375 569.53125 319.5 C 500.890625 441.316406 486.3125 467.773438 486.3125 470.523438 C 486.3125 471.992188 489.714844 479.363281 493.875 486.910156 C 572.953125 630.355469 623.5625 724.667969 623.5625 728.585938 C 623.5625 731.289062 621.539062 735.523438 619.0625 738 C 614.808594 742.253906 611.625 742.496094 561.125 742.410156 C 521.839844 742.347656 505.902344 741.535156 500.9375 739.34375 Z M 500.9375 739.34375 " fill-opacity="1" fill-rule="nonzero"/><path fill="#ffffff" d="M 168.929688 512.878906 C 163.828125 510.878906 160.164062 504.90625 160.347656 498.890625 C 160.472656 494.765625 219.664062 394.503906 266.5625 318.980469 C 270.105469 313.277344 269.660156 312.1875 247.101562 271.121094 C 208.5625 200.957031 205.578125 195 205.75 188.644531 C 206.089844 176.242188 210.8125 175.503906 273.179688 178.136719 C 340.046875 180.957031 332.789062 177.261719 356.480469 220.570312 C 391.597656 284.78125 406.796875 313.878906 406.707031 316.75 C 406.660156 318.414062 398.800781 332.285156 389.246094 347.578125 C 379.691406 362.867188 354.480469 404.230469 333.21875 439.492188 C 311.957031 474.753906 292.597656 505.675781 290.191406 508.203125 C 282.507812 516.296875 271.136719 517.539062 220.351562 515.816406 C 193.90625 514.917969 170.765625 513.597656 168.929688 512.878906 Z M 168.929688 512.878906 " fill-opacity="1" fill-rule="nonzero"/><path fill="#ffffff" d="M 342.996094 669.496094 L 317.109375 669.496094 L 288.949219 624.203125 L 279.316406 631.113281 L 279.316406 669.496094 L 256.519531 669.496094 L 256.519531 561.992188 L 279.316406 561.992188 L 279.316406 611.1875 L 288.285156 598.539062 L 317.40625 561.992188 L 342.699219 561.992188 L 305.199219 609.566406 Z M 342.996094 669.496094 " fill-opacity="1" fill-rule="nonzero"/><path fill="#ffffff" d="M 140.632812 669.308594 C 130.324219 652.683594 126.519531 637.351562 129.226562 623.304688 C 131.929688 609.261719 140.972656 597.46875 156.359375 587.925781 C 171.75 578.378906 186.335938 575.515625 200.121094 579.332031 C 213.902344 583.148438 225.976562 593.414062 236.34375 610.128906 C 246.714844 626.84375 250.5 642.175781 247.699219 656.117188 C 244.898438 670.058594 235.78125 681.816406 220.347656 691.386719 C 204.917969 700.960938 190.359375 703.839844 176.675781 700.027344 C 162.988281 696.214844 150.976562 685.976562 140.632812 669.308594 Z M 213.933594 623.839844 C 206.976562 612.617188 199.605469 605.488281 191.824219 602.449219 C 184.039062 599.414062 175.910156 600.523438 167.441406 605.78125 C 150.445312 616.316406 148.953125 632.875 162.957031 655.457031 C 176.992188 678.082031 192.460938 684.152344 209.359375 673.671875 C 217.832031 668.417969 222.453125 661.601562 223.222656 653.230469 C 223.988281 644.855469 220.890625 635.058594 213.933594 623.839844 Z M 213.933594 623.839844 " fill-opacity="1" fill-rule="nonzero"/><path fill="#ffffff" d="M 185.03125 618.566406 C 185.03125 599.113281 190.570312 584.214844 201.644531 573.867188 C 212.722656 563.515625 228.714844 558.34375 249.621094 558.34375 L 283.089844 558.34375 L 283.089844 676.53125 L 245.980469 676.53125 C 226.6875 676.53125 211.707031 671.4375 201.035156 661.25 C 190.367188 651.0625 185.03125 636.835938 185.03125 618.566406 Z M 211.0625 617.925781 C 211.0625 643.308594 222.273438 656 244.691406 656 L 258.027344 656 L 258.027344 579.035156 L 247.277344 579.035156 C 223.136719 579.035156 211.0625 592 211.0625 617.925781 Z M 211.0625 617.925781 " fill-opacity="1" fill-rule="nonzero"/><path fill="#ffffff" d="M 281.167969 610.148438 L 293.703125 601.152344 L 312.074219 626.75 L 335.5625 609.898438 L 317.195312 584.296875 L 329.769531 575.273438 L 372.328125 634.585938 L 359.753906 643.609375 L 343.074219 620.363281 L 319.582031 637.21875 L 336.261719 660.460938 L 323.726562 669.457031 Z M 281.167969 610.148438 " fill-opacity="1" fill-rule="nonzero"/><g fill="#ffffff" fill-opacity="1"><g transform="translate(510.661042, 471.877677)"><g><path d="M -6.125 -21.421875 L -5.578125 -21.125 L -6.1875 -19.390625 L -4.171875 -12.171875 L 6.5625 -13.921875 L 7.65625 -15.234375 L 8.203125 -14.9375 L 6.359375 -11.59375 L -3.546875 -10.015625 L -3.078125 -7.34375 L 1.5625 -4.796875 L 2.921875 -6.609375 L 3.46875 -6.3125 L 0.328125 -0.609375 L -0.21875 -0.90625 L 0.46875 -2.828125 L -11.640625 -9.484375 L -12.875 -7.859375 L -13.421875 -8.15625 L -10.390625 -13.65625 L -9.84375 -13.359375 L -10.546875 -11.453125 L -4.078125 -7.890625 L -6.9375 -18.03125 L -7.953125 -16.8125 L -8.5 -17.109375 Z M -6.125 -21.421875 "/></g></g></g><g fill="#ffffff" fill-opacity="1"><g transform="translate(518.986566, 456.714807)"><g><path d="M -3.375 -5.328125 L -3.203125 -5.234375 C -2.253906 -4.710938 -1.460938 -4.410156 -0.828125 -4.328125 C -0.191406 -4.242188 0.378906 -4.34375 0.890625 -4.625 C 1.398438 -4.914062 1.847656 -5.410156 2.234375 -6.109375 C 2.441406 -6.484375 2.648438 -6.941406 2.859375 -7.484375 C 3.078125 -8.023438 3.238281 -8.484375 3.34375 -8.859375 L 3.921875 -8.546875 C 3.953125 -8.085938 3.890625 -7.535156 3.734375 -6.890625 C 3.585938 -6.242188 3.351562 -5.628906 3.03125 -5.046875 C 2.207031 -3.546875 1.203125 -2.671875 0.015625 -2.421875 C -1.171875 -2.171875 -2.65625 -2.535156 -4.4375 -3.515625 C -6.113281 -4.429688 -7.171875 -5.46875 -7.609375 -6.625 C -8.054688 -7.78125 -7.921875 -9.007812 -7.203125 -10.3125 C -5.847656 -12.78125 -3.769531 -13.25 -0.96875 -11.71875 L -0.125 -11.25 Z M -6.375 -9.875 C -6.769531 -9.164062 -6.785156 -8.460938 -6.421875 -7.765625 C -6.066406 -7.066406 -5.328125 -6.410156 -4.203125 -5.796875 L -1.9375 -9.921875 C -3.15625 -10.597656 -4.109375 -10.921875 -4.796875 -10.890625 C -5.492188 -10.859375 -6.019531 -10.519531 -6.375 -9.875 Z M -6.375 -9.875 "/></g></g></g><g fill="#ffffff" fill-opacity="1"><g transform="translate(524.103471, 447.395639)"><g><path d="M 5.65625 0.4375 C 5.363281 0.96875 5.007812 1.460938 4.59375 1.921875 L 2.515625 0.765625 L 2.78125 0.296875 L 3.953125 0.5 C 4.234375 0.375 4.476562 0.128906 4.6875 -0.234375 C 4.882812 -0.597656 4.960938 -0.988281 4.921875 -1.40625 C 4.878906 -1.820312 4.722656 -2.265625 4.453125 -2.734375 C 4.179688 -3.203125 3.628906 -3.914062 2.796875 -4.875 L -8.234375 -6.140625 L -9.03125 -5.296875 L -9.5 -5.5625 L -7.046875 -10.015625 L -6.578125 -9.75 L -7.140625 -8.09375 L 1.03125 -7 L -4.34375 -13.234375 L -5.421875 -11.859375 L -5.890625 -12.125 L -3.921875 -15.71875 L -3.453125 -15.453125 L -3.78125 -14.328125 L 3.703125 -5.3125 C 4.585938 -4.25 5.1875 -3.421875 5.5 -2.828125 C 5.8125 -2.234375 5.984375 -1.664062 6.015625 -1.125 C 6.054688 -0.59375 5.9375 -0.0703125 5.65625 0.4375 Z M 5.65625 0.4375 "/></g></g></g><g fill="#ffffff" fill-opacity="1"><g transform="translate(529.867728, 436.897479)"><g><path d="M -7.03125 -8.1875 C -7.050781 -8.875 -6.992188 -9.566406 -6.859375 -10.265625 C -6.722656 -10.960938 -6.546875 -11.507812 -6.328125 -11.90625 C -5.867188 -12.738281 -5.28125 -13.234375 -4.5625 -13.390625 C -3.84375 -13.554688 -3.019531 -13.390625 -2.09375 -12.890625 L 4.234375 -9.40625 L 5.125 -10.421875 L 5.59375 -10.171875 L 3.3125 -6.03125 L 2.84375 -6.28125 L 3.296875 -7.703125 L -2.859375 -11.09375 C -3.421875 -11.394531 -3.941406 -11.5 -4.421875 -11.40625 C -4.898438 -11.3125 -5.300781 -10.972656 -5.625 -10.390625 C -5.957031 -9.773438 -6.269531 -8.960938 -6.5625 -7.953125 L 1.109375 -3.734375 L 2.078125 -4.890625 L 2.546875 -4.640625 L 0.265625 -0.484375 L -0.203125 -0.734375 L 0.1875 -2.03125 L -8.015625 -6.53125 L -8.90625 -5.515625 L -9.375 -5.78125 L -7.859375 -8.53125 Z M -7.03125 -8.1875 "/></g></g></g><g fill="#ffffff" fill-opacity="1"><g transform="translate(535.631985, 426.399319)"><g><path d="M -3.375 -5.328125 L -3.203125 -5.234375 C -2.253906 -4.710938 -1.460938 -4.410156 -0.828125 -4.328125 C -0.191406 -4.242188 0.378906 -4.34375 0.890625 -4.625 C 1.398438 -4.914062 1.847656 -5.410156 2.234375 -6.109375 C 2.441406 -6.484375 2.648438 -6.941406 2.859375 -7.484375 C 3.078125 -8.023438 3.238281 -8.484375 3.34375 -8.859375 L 3.921875 -8.546875 C 3.953125 -8.085938 3.890625 -7.535156 3.734375 -6.890625 C 3.585938 -6.242188 3.351562 -5.628906 3.03125 -5.046875 C 2.207031 -3.546875 1.203125 -2.671875 0.015625 -2.421875 C -1.171875 -2.171875 -2.65625 -2.535156 -4.4375 -3.515625 C -6.113281 -4.429688 -7.171875 -5.46875 -7.609375 -6.625 C -8.054688 -7.78125 -7.921875 -9.007812 -7.203125 -10.3125 C -5.847656 -12.78125 -3.769531 -13.25 -0.96875 -11.71875 L -0.125 -11.25 Z M -6.375 -9.875 C -6.769531 -9.164062 -6.785156 -8.460938 -6.421875 -7.765625 C -6.066406 -7.066406 -5.328125 -6.410156 -4.203125 -5.796875 L -1.9375 -9.921875 C -3.15625 -10.597656 -4.109375 -10.921875 -4.796875 -10.890625 C -5.492188 -10.859375 -6.019531 -10.519531 -6.375 -9.875 Z M -6.375 -9.875 "/></g></g></g><g fill="#ffffff" fill-opacity="1"><g transform="translate(540.748889, 417.080151)"><g><path d="M -6.15625 -12.234375 L -3.546875 -10.8125 L -3.78125 -10.375 L -5.25 -10.390625 C -5.4375 -10.054688 -5.613281 -9.625 -5.78125 -9.09375 C -5.945312 -8.570312 -6.050781 -8.101562 -6.09375 -7.6875 L 1.109375 -3.734375 L 2.28125 -5.25 L 2.75 -5 L 0.234375 -0.421875 L -0.234375 -0.671875 L 0.1875 -2.03125 L -8.015625 -6.53125 L -8.9375 -5.453125 L -9.40625 -5.71875 L -7.859375 -8.53125 L -6.609375 -7.953125 C -6.722656 -8.546875 -6.742188 -9.28125 -6.671875 -10.15625 C -6.609375 -11.03125 -6.460938 -11.671875 -6.234375 -12.078125 Z M -6.15625 -12.234375 "/></g></g></g><g fill="#ffffff" fill-opacity="1"><g transform="translate(544.587975, 410.088212)"><g/></g></g><g fill="#ffffff" fill-opacity="1"><g transform="translate(547.470103, 404.839132)"><g><path d="M -5.25 -6.78125 C -3.039062 -5.570312 -1.238281 -5.0625 0.15625 -5.25 C 1.550781 -5.445312 2.679688 -6.332031 3.546875 -7.90625 C 4.410156 -9.476562 4.550781 -10.90625 3.96875 -12.1875 C 3.382812 -13.476562 1.988281 -14.726562 -0.21875 -15.9375 C -2.40625 -17.144531 -4.1875 -17.644531 -5.5625 -17.4375 C -6.9375 -17.226562 -8.054688 -16.335938 -8.921875 -14.765625 C -9.785156 -13.179688 -9.9375 -11.753906 -9.375 -10.484375 C -8.8125 -9.222656 -7.4375 -7.988281 -5.25 -6.78125 Z M -6.421875 -4.640625 C -11.097656 -7.210938 -12.207031 -10.738281 -9.75 -15.21875 C -8.53125 -17.4375 -7.015625 -18.78125 -5.203125 -19.25 C -3.398438 -19.726562 -1.347656 -19.335938 0.953125 -18.078125 C 3.285156 -16.796875 4.738281 -15.253906 5.3125 -13.453125 C 5.882812 -11.648438 5.566406 -9.65625 4.359375 -7.46875 C 3.160156 -5.28125 1.648438 -3.9375 -0.171875 -3.4375 C -1.992188 -2.945312 -4.078125 -3.347656 -6.421875 -4.640625 Z M -6.421875 -4.640625 "/></g></g></g><g fill="#ffffff" fill-opacity="1"><g transform="translate(555.795627, 389.676262)"><g><path d="M 1.34375 -8.890625 C 2.300781 -8.367188 2.863281 -7.671875 3.03125 -6.796875 C 3.195312 -5.929688 2.953125 -4.90625 2.296875 -3.71875 C 2.035156 -3.238281 1.695312 -2.734375 1.28125 -2.203125 C 0.863281 -1.679688 0.503906 -1.289062 0.203125 -1.03125 L -2.15625 -2.328125 L -1.90625 -2.796875 L -0.28125 -2.5625 C 0.457031 -2.8125 1.050781 -3.347656 1.5 -4.171875 C 2.226562 -5.492188 2.03125 -6.46875 0.90625 -7.09375 C 0.0625 -7.550781 -0.820312 -7.359375 -1.75 -6.515625 L -2.53125 -5.765625 C -3.144531 -5.191406 -3.65625 -4.8125 -4.0625 -4.625 C -4.46875 -4.445312 -4.882812 -4.363281 -5.3125 -4.375 C -5.75 -4.382812 -6.207031 -4.519531 -6.6875 -4.78125 C -7.53125 -5.25 -8.035156 -5.90625 -8.203125 -6.75 C -8.378906 -7.59375 -8.195312 -8.503906 -7.65625 -9.484375 C -7.269531 -10.191406 -6.679688 -11.019531 -5.890625 -11.96875 L -3.796875 -10.828125 L -4.0625 -10.34375 L -5.40625 -10.53125 C -5.914062 -10.34375 -6.382812 -9.859375 -6.8125 -9.078125 C -7.113281 -8.523438 -7.210938 -8.023438 -7.109375 -7.578125 C -7.003906 -7.140625 -6.71875 -6.796875 -6.25 -6.546875 C -5.851562 -6.328125 -5.445312 -6.273438 -5.03125 -6.390625 C -4.625 -6.503906 -4.1875 -6.773438 -3.71875 -7.203125 C -2.820312 -8.035156 -2.210938 -8.5625 -1.890625 -8.78125 C -1.566406 -9 -1.226562 -9.148438 -0.875 -9.234375 C -0.53125 -9.328125 -0.179688 -9.351562 0.171875 -9.3125 C 0.523438 -9.269531 0.914062 -9.128906 1.34375 -8.890625 Z M 1.34375 -8.890625 "/></g></g></g><g fill="#ffffff" fill-opacity="1"><g transform="translate(560.282066, 381.505331)"><g><path d="M 6.125 -10.671875 L 5.671875 -9.859375 L -1.984375 -10.96875 L 3.078125 -5.140625 L 2.671875 -4.390625 L -8.28125 -6.0625 L -9.171875 -5.046875 L -9.640625 -5.3125 L -7.109375 -9.90625 L -6.640625 -9.640625 L -7.265625 -7.890625 L 0.515625 -6.59375 L -4.484375 -12.375 L -4.015625 -13.25 L 3.578125 -12.078125 L -1.796875 -17.875 L -2.921875 -16.421875 L -3.390625 -16.6875 L -1.375 -20.359375 L -0.90625 -20.09375 L -1.265625 -18.921875 Z M 6.125 -10.671875 "/></g></g></g><g fill="#ffffff" fill-opacity="1"><g transform="translate(568.60759, 366.34246)"><g><path d="M -7.234375 -10.171875 C -6.648438 -11.222656 -6.007812 -11.878906 -5.3125 -12.140625 C -4.613281 -12.398438 -3.820312 -12.285156 -2.9375 -11.796875 L 3.578125 -8.21875 L 4.484375 -9.28125 L 4.953125 -9.03125 L 3.5 -6.375 L 2.453125 -6.71875 C 2.796875 -5.519531 2.632812 -4.3125 1.96875 -3.09375 C 1.0625 -1.445312 -0.347656 -1.148438 -2.265625 -2.203125 C -2.898438 -2.554688 -3.359375 -2.972656 -3.640625 -3.453125 C -3.929688 -3.941406 -4.035156 -4.515625 -3.953125 -5.171875 C -3.878906 -5.835938 -3.566406 -6.695312 -3.015625 -7.75 L -2.25 -9.234375 L -3.765625 -10.0625 C -4.429688 -10.425781 -4.984375 -10.566406 -5.421875 -10.484375 C -5.867188 -10.410156 -6.234375 -10.125 -6.515625 -9.625 C -6.890625 -8.9375 -7.078125 -8.222656 -7.078125 -7.484375 L -6.0625 -6.484375 L -6.375 -5.90625 L -8.46875 -7.0625 C -8.101562 -8.289062 -7.691406 -9.328125 -7.234375 -10.171875 Z M -1.546875 -8.84375 L -2.25 -7.46875 C -2.71875 -6.519531 -2.875 -5.796875 -2.71875 -5.296875 C -2.570312 -4.796875 -2.125 -4.34375 -1.375 -3.9375 C -0.175781 -3.269531 0.6875 -3.425781 1.21875 -4.40625 C 1.476562 -4.875 1.644531 -5.304688 1.71875 -5.703125 C 1.789062 -6.097656 1.84375 -6.515625 1.875 -6.953125 Z M -1.546875 -8.84375 "/></g></g></g><g fill="#ffffff" fill-opacity="1"><g transform="translate(573.724494, 357.023293)"><g><path d="M 1.34375 -4.15625 L 2.5 -5.65625 L 2.96875 -5.40625 L 0.234375 -0.421875 L -0.234375 -0.671875 L 0.40625 -2.4375 L -12.734375 -9.65625 L -13.875 -8.171875 L -14.34375 -8.421875 L -12.515625 -11.765625 Z M 1.34375 -4.15625 "/></g></g></g><g fill="#ffffff" fill-opacity="1"><g transform="translate(576.927484, 351.189843)"><g><path d="M 3.34375 -7.796875 C 3.539062 -6.703125 3.359375 -5.640625 2.796875 -4.609375 C 1.335938 -1.960938 -1.03125 -1.539062 -4.3125 -3.34375 C -6.007812 -4.269531 -7.085938 -5.347656 -7.546875 -6.578125 C -8.015625 -7.804688 -7.851562 -9.140625 -7.0625 -10.578125 C -6.65625 -11.316406 -6.164062 -12.023438 -5.59375 -12.703125 C -5.84375 -12.796875 -6.421875 -13.09375 -7.328125 -13.59375 L -9.828125 -14.96875 L -10.96875 -13.46875 L -11.4375 -13.71875 L -9.609375 -17.046875 L 4.25 -9.4375 L 5.15625 -10.5 L 5.625 -10.25 L 4.140625 -7.53125 Z M -3.296875 -5.203125 C -2.003906 -4.492188 -0.914062 -4.179688 -0.03125 -4.265625 C 0.851562 -4.347656 1.539062 -4.835938 2.03125 -5.734375 C 2.457031 -6.503906 2.703125 -7.273438 2.765625 -8.046875 L -4.84375 -12.234375 C -5.289062 -11.679688 -5.726562 -11.015625 -6.15625 -10.234375 C -7.132812 -8.460938 -6.179688 -6.785156 -3.296875 -5.203125 Z M -3.296875 -5.203125 "/></g></g></g><g fill="#ffffff" fill-opacity="1"><g transform="translate(582.691742, 340.691682)"><g><path d="M 0.453125 -12.375 C 3.835938 -10.519531 4.703125 -8.085938 3.046875 -5.078125 C 2.253906 -3.628906 1.222656 -2.769531 -0.046875 -2.5 C -1.316406 -2.238281 -2.78125 -2.5625 -4.4375 -3.46875 C -6.0625 -4.363281 -7.097656 -5.414062 -7.546875 -6.625 C -8.003906 -7.832031 -7.820312 -9.1875 -7 -10.6875 C -6.195312 -12.15625 -5.164062 -13.03125 -3.90625 -13.3125 C -2.65625 -13.59375 -1.203125 -13.28125 0.453125 -12.375 Z M -0.5625 -10.515625 C -2.03125 -11.328125 -3.210938 -11.703125 -4.109375 -11.640625 C -5.003906 -11.578125 -5.707031 -11.085938 -6.21875 -10.171875 C -6.707031 -9.273438 -6.742188 -8.453125 -6.328125 -7.703125 C -5.910156 -6.953125 -4.941406 -6.15625 -3.421875 -5.3125 C -1.867188 -4.46875 -0.660156 -4.066406 0.203125 -4.109375 C 1.078125 -4.160156 1.753906 -4.628906 2.234375 -5.515625 C 2.734375 -6.421875 2.769531 -7.273438 2.34375 -8.078125 C 1.914062 -8.878906 0.945312 -9.691406 -0.5625 -10.515625 Z M -0.5625 -10.515625 "/></g></g></g><g fill="#ffffff" fill-opacity="1"><g transform="translate(588.455999, 330.193522)"><g/></g></g><g fill="#ffffff" fill-opacity="1"><g transform="translate(591.338128, 324.944442)"><g><path d="M -0.28125 -16 C -2.195312 -17.050781 -3.929688 -17.328125 -5.484375 -16.828125 C -7.046875 -16.335938 -8.351562 -15.132812 -9.40625 -13.21875 L -10.421875 -11.375 L 1.4375 -4.875 C 1.9375 -5.664062 2.5 -6.625 3.125 -7.75 C 4.039062 -9.4375 4.222656 -10.945312 3.671875 -12.28125 C 3.117188 -13.613281 1.800781 -14.851562 -0.28125 -16 Z M -9.984375 -14.390625 C -8.597656 -16.929688 -7.003906 -18.503906 -5.203125 -19.109375 C -3.398438 -19.710938 -1.363281 -19.390625 0.90625 -18.140625 C 3.207031 -16.878906 4.625 -15.332031 5.15625 -13.5 C 5.695312 -11.675781 5.328125 -9.59375 4.046875 -7.25 L 1.296875 -2.375 L 0.328125 -0.609375 L -0.21875 -0.90625 L 0.46875 -2.828125 L -11.640625 -9.484375 L -12.875 -7.859375 L -13.421875 -8.15625 Z M -9.984375 -14.390625 "/></g></g></g><g fill="#ffffff" fill-opacity="1"><g transform="translate(599.663652, 309.781572)"><g><path d="M -3.375 -5.328125 L -3.203125 -5.234375 C -2.253906 -4.710938 -1.460938 -4.410156 -0.828125 -4.328125 C -0.191406 -4.242188 0.378906 -4.34375 0.890625 -4.625 C 1.398438 -4.914062 1.847656 -5.410156 2.234375 -6.109375 C 2.441406 -6.484375 2.648438 -6.941406 2.859375 -7.484375 C 3.078125 -8.023438 3.238281 -8.484375 3.34375 -8.859375 L 3.921875 -8.546875 C 3.953125 -8.085938 3.890625 -7.535156 3.734375 -6.890625 C 3.585938 -6.242188 3.351562 -5.628906 3.03125 -5.046875 C 2.207031 -3.546875 1.203125 -2.671875 0.015625 -2.421875 C -1.171875 -2.171875 -2.65625 -2.535156 -4.4375 -3.515625 C -6.113281 -4.429688 -7.171875 -5.46875 -7.609375 -6.625 C -8.054688 -7.78125 -7.921875 -9.007812 -7.203125 -10.3125 C -5.847656 -12.78125 -3.769531 -13.25 -0.96875 -11.71875 L -0.125 -11.25 Z M -6.375 -9.875 C -6.769531 -9.164062 -6.785156 -8.460938 -6.421875 -7.765625 C -6.066406 -7.066406 -5.328125 -6.410156 -4.203125 -5.796875 L -1.9375 -9.921875 C -3.15625 -10.597656 -4.109375 -10.921875 -4.796875 -10.890625 C -5.492188 -10.859375 -6.019531 -10.519531 -6.375 -9.875 Z M -6.375 -9.875 "/></g></g></g><g fill="#ffffff" fill-opacity="1"><g transform="translate(604.780556, 300.462404)"><g/></g></g><g fill="#ffffff" fill-opacity="1"><g transform="translate(607.662684, 295.213324)"><g><path d="M 1.34375 -4.15625 L 2.5 -5.65625 L 2.96875 -5.40625 L 0.234375 -0.421875 L -0.234375 -0.671875 L 0.40625 -2.4375 L -12.734375 -9.65625 L -13.875 -8.171875 L -14.34375 -8.421875 L -12.515625 -11.765625 Z M 1.34375 -4.15625 "/></g></g></g><g fill="#ffffff" fill-opacity="1"><g transform="translate(610.865675, 289.379874)"><g><path d="M -7.234375 -10.171875 C -6.648438 -11.222656 -6.007812 -11.878906 -5.3125 -12.140625 C -4.613281 -12.398438 -3.820312 -12.285156 -2.9375 -11.796875 L 3.578125 -8.21875 L 4.484375 -9.28125 L 4.953125 -9.03125 L 3.5 -6.375 L 2.453125 -6.71875 C 2.796875 -5.519531 2.632812 -4.3125 1.96875 -3.09375 C 1.0625 -1.445312 -0.347656 -1.148438 -2.265625 -2.203125 C -2.898438 -2.554688 -3.359375 -2.972656 -3.640625 -3.453125 C -3.929688 -3.941406 -4.035156 -4.515625 -3.953125 -5.171875 C -3.878906 -5.835938 -3.566406 -6.695312 -3.015625 -7.75 L -2.25 -9.234375 L -3.765625 -10.0625 C -4.429688 -10.425781 -4.984375 -10.566406 -5.421875 -10.484375 C -5.867188 -10.410156 -6.234375 -10.125 -6.515625 -9.625 C -6.890625 -8.9375 -7.078125 -8.222656 -7.078125 -7.484375 L -6.0625 -6.484375 L -6.375 -5.90625 L -8.46875 -7.0625 C -8.101562 -8.289062 -7.691406 -9.328125 -7.234375 -10.171875 Z M -1.546875 -8.84375 L -2.25 -7.46875 C -2.71875 -6.519531 -2.875 -5.796875 -2.71875 -5.296875 C -2.570312 -4.796875 -2.125 -4.34375 -1.375 -3.9375 C -0.175781 -3.269531 0.6875 -3.425781 1.21875 -4.40625 C 1.476562 -4.875 1.644531 -5.304688 1.71875 -5.703125 C 1.789062 -6.097656 1.84375 -6.515625 1.875 -6.953125 Z M -1.546875 -8.84375 "/></g></g></g><g fill="#ffffff" fill-opacity="1"><g transform="translate(615.982579, 280.060706)"><g/></g></g><g fill="#ffffff" fill-opacity="1"><g transform="translate(618.864708, 274.811626)"><g><path d="M 0.328125 -0.609375 L -0.21875 -0.90625 L 0.46875 -2.828125 L -11.640625 -9.484375 L -12.875 -7.859375 L -13.421875 -8.15625 L -10.390625 -13.65625 L -9.84375 -13.359375 L -10.546875 -11.453125 L -5.140625 -8.484375 L -1.59375 -14.953125 L -7 -17.921875 L -8.234375 -16.296875 L -8.78125 -16.59375 L -5.765625 -22.09375 L -5.21875 -21.796875 L -5.921875 -19.890625 L 6.1875 -13.234375 L 7.4375 -14.84375 L 7.984375 -14.546875 L 4.96875 -9.046875 L 4.421875 -9.34375 L 5.109375 -11.265625 L -0.671875 -14.4375 L -4.21875 -7.96875 L 1.5625 -4.796875 L 2.8125 -6.40625 L 3.359375 -6.109375 Z M 0.328125 -0.609375 "/></g></g></g><g fill="#ffffff" fill-opacity="1"><g transform="translate(627.190232, 259.648756)"><g><path d="M 0.453125 -12.375 C 3.835938 -10.519531 4.703125 -8.085938 3.046875 -5.078125 C 2.253906 -3.628906 1.222656 -2.769531 -0.046875 -2.5 C -1.316406 -2.238281 -2.78125 -2.5625 -4.4375 -3.46875 C -6.0625 -4.363281 -7.097656 -5.414062 -7.546875 -6.625 C -8.003906 -7.832031 -7.820312 -9.1875 -7 -10.6875 C -6.195312 -12.15625 -5.164062 -13.03125 -3.90625 -13.3125 C -2.65625 -13.59375 -1.203125 -13.28125 0.453125 -12.375 Z M -0.5625 -10.515625 C -2.03125 -11.328125 -3.210938 -11.703125 -4.109375 -11.640625 C -5.003906 -11.578125 -5.707031 -11.085938 -6.21875 -10.171875 C -6.707031 -9.273438 -6.742188 -8.453125 -6.328125 -7.703125 C -5.910156 -6.953125 -4.941406 -6.15625 -3.421875 -5.3125 C -1.867188 -4.46875 -0.660156 -4.066406 0.203125 -4.109375 C 1.078125 -4.160156 1.753906 -4.628906 2.234375 -5.515625 C 2.734375 -6.421875 2.769531 -7.273438 2.34375 -8.078125 C 1.914062 -8.878906 0.945312 -9.691406 -0.5625 -10.515625 Z M -0.5625 -10.515625 "/></g></g></g><g fill="#ffffff" fill-opacity="1"><g transform="translate(632.954489, 249.150596)"><g><path d="M 0.3125 -0.5625 L -0.15625 -0.8125 L -5.609375 -10.6875 L -6.859375 -8.4375 C -7.066406 -8.050781 -7.234375 -7.660156 -7.359375 -7.265625 C -7.492188 -6.867188 -7.546875 -6.570312 -7.515625 -6.375 L -6.28125 -5.296875 L -6.546875 -4.8125 L -9.125 -6.234375 L -5.21875 -13.34375 L -4.71875 -13.0625 L 0.6875 -3.21875 L 2.234375 -6.046875 C 2.453125 -6.429688 2.632812 -6.863281 2.78125 -7.34375 C 2.925781 -7.832031 2.976562 -8.195312 2.9375 -8.4375 L 1.203125 -10.09375 L 1.46875 -10.5625 L 4.65625 -8.484375 Z M 0.3125 -0.5625 "/></g></g></g><g fill="#ffffff" fill-opacity="1"><g transform="translate(638.071393, 239.831428)"><g/></g></g><g fill="#ffffff" fill-opacity="1"><g transform="translate(640.953522, 234.582348)"><g><path d="M 0.328125 -0.609375 L -0.21875 -0.90625 L 0.46875 -2.828125 L -11.640625 -9.484375 L -12.875 -7.859375 L -13.421875 -8.15625 L -10.390625 -13.65625 L -9.84375 -13.359375 L -10.546875 -11.453125 L -5.140625 -8.484375 L -1.59375 -14.953125 L -7 -17.921875 L -8.234375 -16.296875 L -8.78125 -16.59375 L -5.765625 -22.09375 L -5.21875 -21.796875 L -5.921875 -19.890625 L 6.1875 -13.234375 L 7.4375 -14.84375 L 7.984375 -14.546875 L 4.96875 -9.046875 L 4.421875 -9.34375 L 5.109375 -11.265625 L -0.671875 -14.4375 L -4.21875 -7.96875 L 1.5625 -4.796875 L 2.8125 -6.40625 L 3.359375 -6.109375 Z M 0.328125 -0.609375 "/></g></g></g><g fill="#ffffff" fill-opacity="1"><g transform="translate(649.279046, 219.419478)"><g><path d="M -10.640625 -10.90625 C -10.335938 -10.738281 -10.140625 -10.488281 -10.046875 -10.15625 C -9.953125 -9.820312 -9.992188 -9.5 -10.171875 -9.1875 C -10.335938 -8.882812 -10.585938 -8.679688 -10.921875 -8.578125 C -11.253906 -8.472656 -11.570312 -8.503906 -11.875 -8.671875 C -12.1875 -8.835938 -12.390625 -9.09375 -12.484375 -9.4375 C -12.585938 -9.78125 -12.554688 -10.101562 -12.390625 -10.40625 C -12.210938 -10.71875 -11.953125 -10.921875 -11.609375 -11.015625 C -11.273438 -11.109375 -10.953125 -11.070312 -10.640625 -10.90625 Z M 1.359375 -4.171875 L 2.515625 -5.6875 L 2.984375 -5.4375 L 0.234375 -0.4375 L -0.234375 -0.6875 L 0.421875 -2.46875 L -7.78125 -6.96875 L -8.78125 -5.75 L -9.25 -6.015625 L -7.5625 -9.078125 Z M 1.359375 -4.171875 "/></g></g></g><g fill="#ffffff" fill-opacity="1"><g transform="translate(652.482036, 213.586028)"><g><path d="M -7.03125 -8.1875 C -7.050781 -8.875 -6.992188 -9.566406 -6.859375 -10.265625 C -6.722656 -10.960938 -6.546875 -11.507812 -6.328125 -11.90625 C -5.867188 -12.738281 -5.28125 -13.234375 -4.5625 -13.390625 C -3.84375 -13.554688 -3.019531 -13.390625 -2.09375 -12.890625 L 4.234375 -9.40625 L 5.125 -10.421875 L 5.59375 -10.171875 L 3.3125 -6.03125 L 2.84375 -6.28125 L 3.296875 -7.703125 L -2.859375 -11.09375 C -3.421875 -11.394531 -3.941406 -11.5 -4.421875 -11.40625 C -4.898438 -11.3125 -5.300781 -10.972656 -5.625 -10.390625 C -5.957031 -9.773438 -6.269531 -8.960938 -6.5625 -7.953125 L 1.109375 -3.734375 L 2.078125 -4.890625 L 2.546875 -4.640625 L 0.265625 -0.484375 L -0.203125 -0.734375 L 0.1875 -2.03125 L -8.015625 -6.53125 L -8.90625 -5.515625 L -9.375 -5.78125 L -7.859375 -8.53125 Z M -7.03125 -8.1875 "/></g></g></g><g fill="#ffffff" fill-opacity="1"><g transform="translate(658.246294, 203.087868)"><g><path d="M 4.171875 -9 C 4.234375 -8.53125 4.171875 -7.960938 3.984375 -7.296875 C 3.804688 -6.628906 3.550781 -5.988281 3.21875 -5.375 C 1.5 -2.25 -1.054688 -1.617188 -4.453125 -3.484375 C -6.054688 -4.367188 -7.070312 -5.441406 -7.5 -6.703125 C -7.925781 -7.972656 -7.734375 -9.347656 -6.921875 -10.828125 C -6.410156 -11.753906 -5.753906 -12.707031 -4.953125 -13.6875 L -2.265625 -12.21875 L -2.5625 -11.65625 L -4.515625 -12.15625 C -5.128906 -11.769531 -5.65625 -11.175781 -6.09375 -10.375 C -7.101562 -8.539062 -6.21875 -6.859375 -3.4375 -5.328125 C -1.988281 -4.523438 -0.800781 -4.234375 0.125 -4.453125 C 1.050781 -4.671875 1.832031 -5.363281 2.46875 -6.53125 C 3.019531 -7.53125 3.382812 -8.460938 3.5625 -9.328125 Z M 4.171875 -9 "/></g></g></g><g fill="#ffffff" fill-opacity="1"><g transform="translate(663.363198, 193.7687)"><g><path d="M -7.234375 -10.171875 C -6.648438 -11.222656 -6.007812 -11.878906 -5.3125 -12.140625 C -4.613281 -12.398438 -3.820312 -12.285156 -2.9375 -11.796875 L 3.578125 -8.21875 L 4.484375 -9.28125 L 4.953125 -9.03125 L 3.5 -6.375 L 2.453125 -6.71875 C 2.796875 -5.519531 2.632812 -4.3125 1.96875 -3.09375 C 1.0625 -1.445312 -0.347656 -1.148438 -2.265625 -2.203125 C -2.898438 -2.554688 -3.359375 -2.972656 -3.640625 -3.453125 C -3.929688 -3.941406 -4.035156 -4.515625 -3.953125 -5.171875 C -3.878906 -5.835938 -3.566406 -6.695312 -3.015625 -7.75 L -2.25 -9.234375 L -3.765625 -10.0625 C -4.429688 -10.425781 -4.984375 -10.566406 -5.421875 -10.484375 C -5.867188 -10.410156 -6.234375 -10.125 -6.515625 -9.625 C -6.890625 -8.9375 -7.078125 -8.222656 -7.078125 -7.484375 L -6.0625 -6.484375 L -6.375 -5.90625 L -8.46875 -7.0625 C -8.101562 -8.289062 -7.691406 -9.328125 -7.234375 -10.171875 Z M -1.546875 -8.84375 L -2.25 -7.46875 C -2.71875 -6.519531 -2.875 -5.796875 -2.71875 -5.296875 C -2.570312 -4.796875 -2.125 -4.34375 -1.375 -3.9375 C -0.175781 -3.269531 0.6875 -3.425781 1.21875 -4.40625 C 1.476562 -4.875 1.644531 -5.304688 1.71875 -5.703125 C 1.789062 -6.097656 1.84375 -6.515625 1.875 -6.953125 Z M -1.546875 -8.84375 "/></g></g></g><g fill="#ffffff" fill-opacity="1"><g transform="translate(668.480102, 184.449532)"><g><path d="M -8.0625 -6.453125 L -8.921875 -5.5 L -9.390625 -5.765625 L -7.90625 -8.453125 L -7.3125 -8.171875 C -7.40625 -8.585938 -7.394531 -9.078125 -7.28125 -9.640625 C -7.164062 -10.203125 -6.972656 -10.734375 -6.703125 -11.234375 C -6.023438 -12.460938 -5.070312 -13.179688 -3.84375 -13.390625 C -2.625 -13.597656 -1.21875 -13.265625 0.375 -12.390625 C 2.007812 -11.492188 3.070312 -10.429688 3.5625 -9.203125 C 4.0625 -7.984375 3.929688 -6.675781 3.171875 -5.28125 C 2.742188 -4.507812 2.265625 -3.8125 1.734375 -3.1875 C 2.242188 -2.96875 2.640625 -2.78125 2.921875 -2.625 L 5.515625 -1.203125 L 6.6875 -2.75 L 7.171875 -2.484375 L 4.65625 2.109375 L 4.171875 1.84375 L 4.59375 0.484375 Z M -0.640625 -10.53125 C -1.953125 -11.257812 -3.046875 -11.582031 -3.921875 -11.5 C -4.796875 -11.425781 -5.472656 -10.957031 -5.953125 -10.09375 C -6.390625 -9.289062 -6.640625 -8.5625 -6.703125 -7.90625 L 1 -3.671875 C 1.445312 -4.210938 1.867188 -4.847656 2.265625 -5.578125 C 3.210938 -7.296875 2.242188 -8.945312 -0.640625 -10.53125 Z M -0.640625 -10.53125 "/></g></g></g><g fill="#ffffff" fill-opacity="1"><g transform="translate(674.244359, 173.951372)"><g><path d="M -10.640625 -10.90625 C -10.335938 -10.738281 -10.140625 -10.488281 -10.046875 -10.15625 C -9.953125 -9.820312 -9.992188 -9.5 -10.171875 -9.1875 C -10.335938 -8.882812 -10.585938 -8.679688 -10.921875 -8.578125 C -11.253906 -8.472656 -11.570312 -8.503906 -11.875 -8.671875 C -12.1875 -8.835938 -12.390625 -9.09375 -12.484375 -9.4375 C -12.585938 -9.78125 -12.554688 -10.101562 -12.390625 -10.40625 C -12.210938 -10.71875 -11.953125 -10.921875 -11.609375 -11.015625 C -11.273438 -11.109375 -10.953125 -11.070312 -10.640625 -10.90625 Z M 1.359375 -4.171875 L 2.515625 -5.6875 L 2.984375 -5.4375 L 0.234375 -0.4375 L -0.234375 -0.6875 L 0.421875 -2.46875 L -7.78125 -6.96875 L -8.78125 -5.75 L -9.25 -6.015625 L -7.5625 -9.078125 Z M 1.359375 -4.171875 "/></g></g></g><g fill="#ffffff" fill-opacity="1"><g transform="translate(677.44735, 168.117922)"><g><path d="M -3.375 -5.328125 L -3.203125 -5.234375 C -2.253906 -4.710938 -1.460938 -4.410156 -0.828125 -4.328125 C -0.191406 -4.242188 0.378906 -4.34375 0.890625 -4.625 C 1.398438 -4.914062 1.847656 -5.410156 2.234375 -6.109375 C 2.441406 -6.484375 2.648438 -6.941406 2.859375 -7.484375 C 3.078125 -8.023438 3.238281 -8.484375 3.34375 -8.859375 L 3.921875 -8.546875 C 3.953125 -8.085938 3.890625 -7.535156 3.734375 -6.890625 C 3.585938 -6.242188 3.351562 -5.628906 3.03125 -5.046875 C 2.207031 -3.546875 1.203125 -2.671875 0.015625 -2.421875 C -1.171875 -2.171875 -2.65625 -2.535156 -4.4375 -3.515625 C -6.113281 -4.429688 -7.171875 -5.46875 -7.609375 -6.625 C -8.054688 -7.78125 -7.921875 -9.007812 -7.203125 -10.3125 C -5.847656 -12.78125 -3.769531 -13.25 -0.96875 -11.71875 L -0.125 -11.25 Z M -6.375 -9.875 C -6.769531 -9.164062 -6.785156 -8.460938 -6.421875 -7.765625 C -6.066406 -7.066406 -5.328125 -6.410156 -4.203125 -5.796875 L -1.9375 -9.921875 C -3.15625 -10.597656 -4.109375 -10.921875 -4.796875 -10.890625 C -5.492188 -10.859375 -6.019531 -10.519531 -6.375 -9.875 Z M -6.375 -9.875 "/></g></g></g></svg>