<svg xmlns="http://www.w3.org/2000/svg" data-name="Layer 1" viewBox="0 0 100 125" x="0px" y="0px"><title>121all</title><rect x="49.49" y="34.51" width="2" height="31.97" transform="translate(-20.92 50.49) rotate(-45)"/><polygon points="41.27 49.58 39.85 48.17 33.24 54.78 8.41 29.95 29.95 8.41 54.78 33.24 48.17 39.85 49.58 41.27 57.61 33.24 29.95 5.59 5.59 29.95 33.24 57.61 41.27 49.58"/><polygon points="58.73 50.42 60.15 51.83 66.76 45.22 91.58 70.05 70.05 91.58 45.22 66.76 51.83 60.15 50.42 58.73 42.39 66.76 70.05 94.41 94.41 70.05 66.76 42.39 58.73 50.42"/></svg>